<?xml version="1.0" encoding="iso-8859-1"?>
<!-- Generator: Adobe Illustrator 19.0.0, SVG Export Plug-In . SVG Version: 6.00 Build 0)  -->
<svg version="1.1" id="Capa_1" xmlns="http://www.w3.org/2000/svg" xmlns:xlink="http://www.w3.org/1999/xlink" x="0px" y="0px"
	 viewBox="0 0 508 508" style="enable-background:new 0 0 508 508;" xml:space="preserve">
<g>
	<g>
		<path d="M254.05,49.7c-18.1,0-32.7,14.7-32.7,32.7s14.6,32.8,32.7,32.8c18.1,0,32.7-14.7,32.7-32.7S272.15,49.7,254.05,49.7z
			 M254.05,98.9c-9.1,0-16.4-7.3-16.4-16.4s7.4-16.4,16.4-16.4c9,0,16.4,7.3,16.4,16.4S263.15,98.9,254.05,98.9z"/>
	</g>
</g>
<g>
	<g>
		<path d="M474.95,458.9v-32.7h-24.5v-40.9h-16.4V188.9h16.4V148h49.1V74.3h-62.2L254.05,0L72.45,74.3H8.55v73.6h49.1v40.9h16.4
			v196.4h-16.4v40.9h-24.5v32.7H0.35V508h507.3v-49.1H474.95z M434.05,172.5h-65.5V148h65.5V172.5z M286.75,385.3V188.9h16.4V148
			h49.1v40.9h16.4v196.4h-16.4v40.9h-49.1v-40.9H286.75z M139.45,385.2V188.9h16.4v-41h49.1v40.9h16.4v196.4h-16.4v40.9h-49.1v-40.9
			H139.45z M74.05,172.4v-24.5h65.5v24.5H74.05z M123.05,188.9v196.4h-32.7V188.9H123.05z M221.35,401.6h65.5v24.5h-65.5V401.6z
			 M221.35,172.5V148h65.5v24.5H221.35z M270.45,188.9v196.4h-32.7V188.9H270.45z M368.55,401.7h65.5v24.5h-65.5V401.7z
			 M385.05,385.3V188.9h32.7v196.4H385.05z M24.95,131.6V90.7h50.7l178.4-73l180,73h49.1v40.9H24.95z M74.05,401.6h65.5v24.5h-65.5
			V401.6z M49.45,442.5h409.2v16.4H49.45V442.5z M491.35,491.6L491.35,491.6H16.75v-16.4h474.6V491.6z"/>
	</g>
</g>
<g>
</g>
<g>
</g>
<g>
</g>
<g>
</g>
<g>
</g>
<g>
</g>
<g>
</g>
<g>
</g>
<g>
</g>
<g>
</g>
<g>
</g>
<g>
</g>
<g>
</g>
<g>
</g>
<g>
</g>
</svg>
