<svg width="15" height="15" viewBox="0 0 15 15" fill="none" xmlns="http://www.w3.org/2000/svg">
<path fill-rule="evenodd" clip-rule="evenodd" d="M14.2308 4.57956C13.4691 2.77595 12.0671 1.3336 10.2249 0.571543C8.42229 -0.190514 6.41937 -0.190514 4.57668 0.571543C2.77405 1.3336 1.33248 2.73641 0.570833 4.57956C-0.190278 6.38317 -0.190278 8.38717 0.570833 10.2303C1.33248 12.0339 2.73452 13.4768 4.57668 14.2383C5.49909 14.5996 6.45889 14.8 7.38077 14.8C7.42083 14.8 7.46035 14.8 7.54154 14.8C7.54154 14.8 7.54154 14.8 7.58106 14.8C7.62112 14.8 7.62112 14.8 7.66065 14.8C8.54086 14.7605 9.3837 14.5996 10.2249 14.2383C12.0276 13.4768 13.4691 12.074 14.2308 10.2303C14.9897 8.42672 14.9897 6.42271 14.2308 4.57956ZM13.1476 9.31009H11.9063C12.0276 8.66934 12.1066 8.02806 12.1066 7.42685C12.1066 6.78611 12.0671 6.14536 11.9458 5.54416H13.1871C13.5482 6.74442 13.5482 8.06814 13.1476 9.31009ZM4.45597 7.42472C4.45597 6.78397 4.53502 6.14322 4.65626 5.54202H6.93853V9.31009H4.69579C4.53502 8.66934 4.45597 8.02592 4.45597 7.42472ZM8.26152 1.534C9.02317 1.89526 9.74262 2.89726 10.1849 4.17876H8.26152V1.534ZM6.93853 1.534V4.17876H5.01519C5.45743 2.89726 6.17688 1.9348 6.93853 1.534ZM6.93853 10.6311V13.2363C6.2586 12.8355 5.576 11.8335 5.09637 10.6311H6.93853ZM8.26152 13.2363V10.6311H10.1037C9.66357 11.8335 8.98097 12.8355 8.26152 13.2363ZM8.26152 9.31009V5.54202H10.5438C10.665 6.14322 10.7441 6.78397 10.7441 7.42472C10.7441 8.066 10.665 8.70675 10.5043 9.30795H8.26152V9.31009ZM12.5072 4.17876H11.5848C11.3845 3.57756 11.1447 3.0159 10.8632 2.49646C11.5452 2.93681 12.1066 3.49846 12.5072 4.17876ZM4.49549 2.1352C4.13443 2.73641 3.81557 3.4167 3.61528 4.17876H2.37346C2.89316 3.33761 3.61528 2.6151 4.49549 2.1352ZM1.73093 5.54202H3.29374C3.1725 6.18277 3.13297 6.78397 3.13297 7.42472C3.13297 8.02592 3.21256 8.6672 3.33326 9.30795H1.73093C1.29082 8.06814 1.29082 6.74442 1.73093 5.54202ZM2.3318 10.6311H3.6548C3.89462 11.3932 4.21615 12.1136 4.61674 12.7564C3.69432 12.2766 2.89316 11.554 2.3318 10.6311ZM10.7441 12.4347C11.0656 11.8736 11.3054 11.2724 11.5452 10.6311H12.5072C12.0671 11.3536 11.4662 11.9944 10.7441 12.4347Z" fill="white"/>
</svg>
