<svg width="61" height="53" viewBox="0 0 61 53" fill="none" xmlns="http://www.w3.org/2000/svg">
<rect width="61" height="53" rx="3" fill="#D3DDE0"/>
<path fill-rule="evenodd" clip-rule="evenodd" d="M45.3758 23.8004H15.6266C14.178 23.8004 13.0024 25.0098 13.0024 26.5C13.0024 27.9927 14.178 29.1996 15.6266 29.1996H45.3758C46.825 29.1996 48 27.9902 48 26.5C48 25.0073 46.825 23.8004 45.3758 23.8004ZM45.3758 34.6013H15.6266C14.178 34.6013 13.0024 35.8101 13.0024 37.3004C13.0024 38.7937 14.178 40 15.6266 40H45.3758C46.825 40 48 38.7912 48 37.3004C48 35.8101 46.825 34.6013 45.3758 34.6013ZM15.6242 18.3987H45.3734C46.8226 18.3987 47.9976 17.1899 47.9976 15.6996C47.9976 14.2063 46.8226 13 45.3734 13H15.6242C14.1756 13 13 14.2088 13 15.6996C13 17.1899 14.1756 18.3987 15.6242 18.3987Z" fill="#636363"/>
</svg>
